<?xml version="1.0" encoding="UTF-8" standalone="no"?>
<svg
   width="1080"
   zoomAndPan="magnify"
   viewBox="0 0 810 809.99999"
   height="1080"
   preserveAspectRatio="xMidYMid"
   version="1.0"
   id="svg41"
   xmlns="http://www.w3.org/2000/svg"
   xmlns:svg="http://www.w3.org/2000/svg">
  <defs
     id="defs3">
    <clipPath
       id="d999191518">
      <rect
         x="0"
         width="483"
         y="0"
         height="810"
         id="rect1" />
    </clipPath>
    <clipPath
       id="d6271e2cb2">
      <path
         d="M 552.75781,241 H 612 v 46 h -59.24219 z m 0,0"
         clip-rule="nonzero"
         id="path1" />
    </clipPath>
    <clipPath
       id="fbc5182d58">
      <rect
         x="0"
         width="209"
         y="0"
         height="37"
         id="rect2" />
    </clipPath>
    <clipPath
       id="70d322eef4">
      <rect
         x="0"
         width="58"
         y="0"
         height="577"
         id="rect3" />
    </clipPath>
  </defs>
  <g
     transform="translate(163)"
     id="g18">
    <g
       clip-path="url(#d999191518)"
       id="g17">
      <g
         fill="#1f1d19"
         fill-opacity="1"
         id="g7">
        <g
           transform="translate(3.906029,477.15516)"
           id="g6">
          <g
             id="g5">
            <path
               d="m 23.96875,4.140625 -3.296875,-10.75 37.203125,-19.4375 c 8.8125,-4.675781 16.9375,-9.425781 24.375,-14.25 7.445312,-4.820313 12.960938,-9.023437 16.546875,-12.609375 4.957035,-5.238281 9.773435,-12.265625 14.453125,-21.078125 4.6875,-8.820313 8.41016,-18.742187 11.17188,-29.765625 l 12.81249,-48.78125 11.5625,2.48438 c -1.92968,11.85546 -3.51171,22.39843 -4.75,31.62499 -1.24218,9.23047 -1.85937,16.04688 -1.85937,20.45313 0,6.0625 1.30469,12.402344 3.92187,19.015625 2.625,6.617187 7.10157,12.132813 13.4375,16.546875 6.34375,4.40625 14.75,6.609375 25.21875,6.609375 h 0.82813 c 0.82031,6.335937 0.47266,13.359375 -1.04688,21.078125 -1.51171,7.71875 -3.85156,14.746094 -7.01562,21.078125 C 174.36328,-7.304688 170.57812,-2.757812 166.17187,0 h -0.82812 c -9.92969,0 -19.57813,-3.582031 -28.95313,-10.75 -9.36718,-7.164062 -16.66406,-17.773438 -21.89062,-31.828125 -4.6875,10.199219 -9.375,18.464844 -14.0625,24.796875 -3.585938,4.6875 -6.683594,7.929688 -9.296875,9.71875 -2.617187,1.792969 -6.402344,3.101562 -11.359375,3.921875 z m 0,0"
               id="path5" />
          </g>
        </g>
      </g>
      <g
         fill="#1f1d19"
         fill-opacity="1"
         id="g10">
        <g
           transform="translate(219.66825,284.95314)"
           id="g9">
          <g
             id="g8">
            <path
               d="m 83.078125,-79.359375 c -0.824219,0 -1.789063,-0.06641 -2.890625,-0.203125 -1.105469,-0.144531 -2.34375,-0.351562 -3.71875,-0.625 -8.824219,-2.207031 -15.304688,-5.992188 -19.4375,-11.359375 -4.125,-5.375 -6.1875,-10.679685 -6.1875,-15.921875 0,-4.6875 1.097656,-8.82031 3.296875,-12.40625 2.207031,-3.58203 4.273437,-6.47266 6.203125,-8.67187 l 13.640625,-17.78125 H 76.0625 c 2.75,6.61718 7.15625,11.78125 13.21875,15.5 6.0625,3.71874 12.125,6.13281 18.1875,7.23437 4.40625,0.83594 6.60938,2.76562 6.60938,5.79687 0,1.64844 -0.96485,3.85157 -2.89063,6.60938 l -20.25,27.28125 c -1.929688,3.03125 -4.546875,4.546875 -7.859375,4.546875 z M 59.9375,0.828125 c -1.929688,0 -4.40625,-0.414063 -7.4375,-1.234375 -8.542969,-2.757812 -15.296875,-6.960938 -20.265625,-12.609375 -4.960937,-5.65625 -7.4375,-11.375 -7.4375,-17.15625 0,-4.6875 1.238281,-8.957031 3.71875,-12.8125 2.476563,-3.863281 4.6875,-7.035156 6.625,-9.515625 l 14.875,-19.421875 H 52.5 c 2.195312,7.4375 6.671875,13.367187 13.421875,17.78125 6.757813,4.40625 13.582031,7.296875 20.46875,8.671875 l 27.687505,-37.203125 h 2.48437 c 2.20703,7.167969 6.34375,12.683594 12.40625,16.546875 6.0625,3.855469 12.53516,6.46875 19.42187,7.84375 4.6875,1.105469 7.03125,3.449219 7.03125,7.03125 0,2.199219 -0.96484,4.679688 -2.89062,7.4375 l -20.26563,28.9375 c -2.48046,3.304688 -5.37109,4.953125 -8.67187,4.953125 -1.92969,0 -4.40625,-0.410156 -7.4375,-1.234375 -6.61719,-2.476562 -12.40625,-5.578125 -17.375,-9.296875 -4.960938,-3.726563 -8.679688,-7.382813 -11.15625,-10.96875 l -19.015625,27.28125 c -2.480469,3.3125 -5.371094,4.96875 -8.671875,4.96875 z m 0,0"
               id="path7" />
          </g>
        </g>
      </g>
      <g
         fill="#1f1d19"
         fill-opacity="1"
         id="g13">
        <g
           transform="translate(170.06774,421.35457)"
           id="g12">
          <g
             id="g11">
            <path
               d="M 0,55.796875 C 0,53.867188 0.617188,50.425781 1.859375,45.46875 3.097656,40.507812 4.679688,35 6.609375,28.9375 8.535156,22.875 10.601562,17.15625 12.8125,11.78125 15.019531,6.40625 17.222656,2.476562 19.421875,0 H 20.25 c 11.019531,0 21.832031,-3.785156 32.4375,-11.359375 10.613281,-7.582031 19.78125,-16.75 27.5,-27.5 h 6.203125 c 1.375,2.480469 3.785156,4.480469 7.234375,6 3.445312,1.511719 7.09766,2.265625 10.95313,2.265625 7.16406,0 14.1914,-2.957031 21.07812,-8.875 6.88281,-5.925781 13.35937,-15.78125 19.42187,-29.5625 h 7.85938 c 1.65625,6.617188 5.09766,9.921875 10.32812,9.921875 4.6875,0 9.50782,-2.6875 14.46875,-8.0625 4.95704,-5.375 9.22657,-14.8125 12.8125,-28.3125 L 200.0625,-94.25 c -1.92969,12.40625 -4.89063,23.984375 -8.89063,34.734375 -4,10.742187 -9.03125,19.417969 -15.09375,26.03125 -6.0625,6.617187 -13.36718,9.921875 -21.90625,9.921875 -0.82421,0 -1.85546,-0.06641 -3.09375,-0.203125 -1.24218,-0.132813 -2.6875,-0.34375 -4.34375,-0.625 -5.78125,11.023437 -13.01562,19.496094 -21.70312,25.421875 -8.67969,5.925781 -17.42187,8.890625 -26.234375,8.890625 -8.824219,0 -17.230469,-2.757813 -25.21875,-8.265625 -9.648437,15.425781 -20.808594,28.304688 -33.484375,38.640625 -12.679688,10.332031 -25.765625,15.5 -39.265625,15.5 z m 0,0"
               id="path10" />
          </g>
        </g>
      </g>
      <g
         fill="#1f1d19"
         fill-opacity="1"
         id="g16">
        <g
           transform="translate(312.23143,477.15516)"
           id="g15">
          <g
             id="g14">
            <path
               d="m 23.96875,2.890625 -3.296875,-10.75 26.453125,-15.28125 c 12.394531,-7.164063 22.722656,-13.78125 30.984375,-19.84375 8.269531,-6.0625 15.023437,-11.710937 20.265625,-16.953125 8.53906,-8.8125 14.46094,-17.488281 17.76563,-26.03125 3.3125,-8.550781 6.34765,-18.0625 9.10937,-28.53125 l 9.90625,-36.375 12,2.48438 -11.17188,54.968745 c -5.23046,25.085937 -10.74218,43.554687 -16.53124,55.40625 -5.78125,11.84375 -11.84375,20.523437 -18.1875,26.03125 -3.585942,3.304687 -6.960942,5.574219 -10.125005,6.8125 -3.167969,1.242187 -7.09375,2.136719 -11.78125,2.6875 z m 0,0"
               id="path13" />
          </g>
        </g>
      </g>
    </g>
  </g>
  <g
     clip-path="url(#d6271e2cb2)"
     id="g19">
    <path
       fill="#1f1d19"
       d="m 552.75781,285.64453 c 0,0 15.76172,1.85156 22.83985,0 5.02343,-1.3125 18.02734,-11.45703 25.95703,-20.80078 4.57812,-0.66016 10.16015,-4.55469 10.16015,-4.55469 -2.05468,-0.64844 -3.91015,-1.23828 -5.57031,-1.78515 0.83594,-1.46094 1.42578,-2.83204 1.70313,-4.0586 2.25,-9.97656 -3.0586,-13.75781 -7.96094,-12.94922 -4.90625,0.80469 -11.33985,9.57032 -11.82422,14.23047 -0.34766,3.32422 3.23437,6.28125 7.03906,7.91016 -1.16015,1.23047 -2.5039,2.6289 -4.0625,4.23047 -11.66406,11.98828 -38.28125,17.77734 -38.28125,17.77734 z m 42.48828,-34.58203 c 0.8711,-3.53906 4.98828,-1.26563 6.11328,1.38672 0.5625,1.32812 0.89844,2.1875 -0.37109,4.21875 -4.45312,-1.77735 -6.30469,-3.32422 -5.74219,-5.60547 z m 0,0"
       fill-opacity="1"
       fill-rule="nonzero"
       id="path18" />
  </g>
  <g
     transform="translate(188,509)"
     id="g36">
    <g
       clip-path="url(#fbc5182d58)"
       id="g35">
      <g
         fill="#1f1d19"
         fill-opacity="1"
         id="g22">
        <g
           transform="translate(0.518764,26.609887)"
           id="g21">
          <g
             id="g20">
            <path
               d="m 2.90625,-19.390625 h 7.765625 c 0.863281,0 1.660156,0.152344 2.390625,0.453125 0.726562,0.292969 1.351562,0.699219 1.875,1.21875 0.53125,0.511719 0.941406,1.121094 1.234375,1.828125 0.300781,0.710937 0.453125,1.480469 0.453125,2.3125 0,1.117187 -0.214844,2.027344 -0.640625,2.734375 -0.429687,0.710938 -0.890625,1.277344 -1.390625,1.703125 -0.585938,0.480469 -1.246094,0.851563 -1.984375,1.109375 L 17.171875,0 h -2.34375 L 10.53125,-7.75 H 4.984375 V 0 H 2.90625 Z m 7.765625,9.6875 c 1.175781,0 2.113281,-0.347656 2.8125,-1.046875 0.707031,-0.695312 1.0625,-1.640625 1.0625,-2.828125 0,-1.175781 -0.355469,-2.113281 -1.0625,-2.8125 -0.699219,-0.707031 -1.636719,-1.0625 -2.8125,-1.0625 h -5.6875 v 7.75 z m 0,0"
               id="path19" />
          </g>
        </g>
      </g>
      <g
         fill="#1f1d19"
         fill-opacity="1"
         id="g25">
        <g
           transform="translate(41.379683,26.609887)"
           id="g24">
          <g
             id="g23">
            <path
               d="M 10.53125,0.28125 C 9.414062,0.28125 8.378906,0.078125 7.421875,-0.328125 6.460938,-0.734375 5.625,-1.289062 4.90625,-2 4.195312,-2.71875 3.640625,-3.554688 3.234375,-4.515625 2.828125,-5.472656 2.625,-6.507812 2.625,-7.625 V -19.390625 H 4.703125 V -7.625 c 0,0.875 0.144531,1.679688 0.4375,2.40625 0.300781,0.730469 0.707031,1.359375 1.21875,1.890625 0.519531,0.523437 1.132813,0.933594 1.84375,1.234375 0.71875,0.292969 1.492187,0.4375 2.328125,0.4375 0.832031,0 1.601562,-0.144531 2.3125,-0.4375 0.707031,-0.300781 1.316406,-0.710938 1.828125,-1.234375 0.519531,-0.53125 0.925781,-1.160156 1.21875,-1.890625 C 16.191406,-5.945312 16.34375,-6.75 16.34375,-7.625 v -11.765625 h 2.078125 V -7.625 c 0,1.117188 -0.203125,2.152344 -0.609375,3.109375 C 17.40625,-3.554688 16.847656,-2.71875 16.140625,-2 15.429688,-1.289062 14.59375,-0.734375 13.625,-0.328125 12.664062,0.078125 11.632812,0.28125 10.53125,0.28125 Z m 0,0"
               id="path22" />
          </g>
        </g>
      </g>
      <g
         fill="#1f1d19"
         fill-opacity="1"
         id="g28">
        <g
           transform="translate(84.595247,26.609887)"
           id="g27">
          <g
             id="g26">
            <path
               d="m 7.75,0.28125 c -1.105469,0 -2.070312,-0.148438 -2.890625,-0.4375 -0.824219,-0.300781 -1.5,-0.632812 -2.03125,-1 C 2.203125,-1.582031 1.675781,-2.070312 1.25,-2.625 L 2.5,-4.046875 c 0.34375,0.460937 0.765625,0.855469 1.265625,1.1875 0.425781,0.324219 0.972656,0.605469 1.640625,0.84375 0.664062,0.242187 1.445312,0.359375 2.34375,0.359375 1.46875,0 2.570312,-0.335938 3.3125,-1.015625 0.75,-0.675781 1.125,-1.539063 1.125,-2.59375 0,-0.625 -0.152344,-1.132813 -0.453125,-1.53125 -0.304687,-0.394531 -0.699219,-0.734375 -1.1875,-1.015625 -0.492187,-0.28125 -1.054687,-0.515625 -1.6875,-0.703125 -0.625,-0.195313 -1.273437,-0.394531 -1.9375,-0.59375 -0.667969,-0.207031 -1.3125,-0.4375 -1.9375,-0.6875 -0.625,-0.25 -1.183594,-0.570313 -1.671875,-0.96875 -0.492188,-0.394531 -0.890625,-0.882813 -1.203125,-1.46875 -0.304687,-0.582031 -0.453125,-1.304687 -0.453125,-2.171875 0,-0.695312 0.140625,-1.363281 0.421875,-2 0.289063,-0.644531 0.707031,-1.207031 1.25,-1.6875 0.550781,-0.476562 1.207031,-0.859375 1.96875,-1.140625 0.769531,-0.289063 1.632813,-0.4375 2.59375,-0.4375 0.945313,0 1.769531,0.132813 2.46875,0.390625 0.695313,0.261719 1.289063,0.546875 1.78125,0.859375 0.550781,0.367187 1.03125,0.78125 1.4375,1.25 l -1.390625,1.375 c -0.292969,-0.34375 -0.652344,-0.664063 -1.078125,-0.96875 -0.367187,-0.238281 -0.8125,-0.457031 -1.34375,-0.65625 -0.53125,-0.207031 -1.15625,-0.3125 -1.875,-0.3125 -0.667969,0 -1.261719,0.09375 -1.78125,0.28125 -0.511719,0.1875 -0.945313,0.433594 -1.296875,0.734375 -0.34375,0.304688 -0.609375,0.652344 -0.796875,1.046875 -0.1875,0.398437 -0.28125,0.820313 -0.28125,1.265625 0,0.835938 0.257813,1.480469 0.78125,1.9375 0.519531,0.449219 1.171875,0.820312 1.953125,1.109375 0.78125,0.292969 1.625,0.5625 2.53125,0.8125 0.90625,0.242187 1.75,0.558594 2.53125,0.953125 0.789062,0.398438 1.441406,0.933594 1.953125,1.609375 0.519531,0.667969 0.78125,1.574219 0.78125,2.71875 0,0.792969 -0.148437,1.527344 -0.4375,2.203125 -0.28125,0.679688 -0.699219,1.265625 -1.25,1.765625 -0.554687,0.5 -1.234375,0.890625 -2.046875,1.171875 C 9.71875,0.144531 8.789062,0.28125 7.75,0.28125 Z m 0,0"
               id="path25" />
          </g>
        </g>
      </g>
      <g
         fill="#1f1d19"
         fill-opacity="1"
         id="g31">
        <g
           transform="translate(122.40899,26.609887)"
           id="g30">
          <g
             id="g29">
            <path
               d="m 2.90625,-19.390625 h 2.078125 v 8.59375 h 10.8125 v -8.59375 H 17.875 V 0 H 15.796875 V -8.859375 H 4.984375 V 0 H 2.90625 Z m 0,0"
               id="path28" />
          </g>
        </g>
      </g>
      <g
         fill="#1f1d19"
         fill-opacity="1"
         id="g34">
        <g
           transform="translate(165.34752,26.609887)"
           id="g33">
          <g
             id="g32">
            <path
               d="M 2.90625,-19.390625 H 9 c 1.425781,0 2.753906,0.261719 3.984375,0.78125 1.226563,0.511719 2.296875,1.210937 3.203125,2.09375 0.914062,0.886719 1.628906,1.917969 2.140625,3.09375 0.519531,1.179687 0.78125,2.417969 0.78125,3.71875 0,1.3125 -0.261719,2.558594 -0.78125,3.734375 -0.511719,1.179688 -1.226563,2.210938 -2.140625,3.09375 -0.90625,0.886719 -1.976562,1.589844 -3.203125,2.109375 C 11.753906,-0.253906 10.425781,0 9,0 H 2.90625 Z M 9,-1.9375 c 1.144531,0 2.207031,-0.203125 3.1875,-0.609375 0.976562,-0.40625 1.828125,-0.957031 2.546875,-1.65625 0.71875,-0.707031 1.28125,-1.53125 1.6875,-2.46875 0.40625,-0.945313 0.609375,-1.957031 0.609375,-3.03125 0,-1.0625 -0.203125,-2.0625 -0.609375,-3 -0.40625,-0.945313 -0.96875,-1.769531 -1.6875,-2.46875 C 14.015625,-15.878906 13.164062,-16.4375 12.1875,-16.84375 11.207031,-17.25 10.144531,-17.453125 9,-17.453125 H 4.984375 V -1.9375 Z m 0,0"
               id="path31" />
          </g>
        </g>
      </g>
    </g>
  </g>
  <g
     transform="translate(289)"
     id="g41">
    <g
       clip-path="url(#70d322eef4)"
       id="g40">
      <g
         fill="#1f1d19"
         fill-opacity="1"
         id="g39">
        <g
           transform="translate(2.608663,308.44311)"
           id="g38">
          <g
             id="g37">
            <path
               d="m 20.65625,-49.515625 c -3.261719,0 -5.667969,-1.257813 -7.21875,-3.78125 -1.554688,-2.519531 -2.328125,-5.628906 -2.328125,-9.328125 0,-4.59375 0.738281,-8.960938 2.21875,-13.109375 1.476563,-4.144531 2.734375,-7.328125 3.765625,-9.546875 L 21.765625,-83.5 c -1.042969,2.523438 -1.898437,4.820312 -2.5625,6.890625 -0.667969,2.0625 -1,4.058594 -1,5.984375 0,3.40625 1.515625,5.445312 4.546875,6.109375 3.039062,0.667969 5.894531,-0.109375 8.5625,-2.328125 L 29.53125,-81.5 l 3.109375,-5.546875 h 4.21875 l -0.875,19.53125 c 1.625,1.480469 3.582031,2.074219 5.875,1.78125 2.289063,-0.289063 4.101563,-1.179687 5.4375,-2.671875 L 45.078125,-82.609375 48.859375,-91.5 H 51.75 c 0.4375,3.117188 0.835938,6.117188 1.203125,9 0.375,2.886719 0.5625,5.367188 0.5625,7.4375 0,7.25 -1.515625,12.914062 -4.546875,16.984375 -3.03125,4.074219 -6.25,6.109375 -9.65625,6.109375 -3.261719,0 -5.78125,-1.332031 -7.5625,-4 -1.179688,1.480469 -2.695312,2.929688 -4.546875,4.34375 -1.855469,1.40625 -4.039063,2.109375 -6.546875,2.109375 z m 0,0"
               id="path36" />
          </g>
        </g>
      </g>
    </g>
  </g>
</svg>
