<?xml version="1.0" encoding="UTF-8" standalone="no"?>
<svg
   width="1080"
   zoomAndPan="magnify"
   viewBox="0 0 810 809.99999"
   height="1080"
   preserveAspectRatio="xMidYMid"
   version="1.0"
   id="svg13"
   xmlns="http://www.w3.org/2000/svg"
   xmlns:svg="http://www.w3.org/2000/svg">
  <defs
     id="defs1">
    <clipPath
       id="360435df25">
      <rect
         x="0"
         width="310"
         y="0"
         height="298"
         id="rect1" />
    </clipPath>
  </defs>
  <g
     transform="translate(224.97692,216.93735)"
     id="g13"
     style="fill:#000000">
    <g
       clip-path="url(#360435df25)"
       id="g12"
       style="fill:#000000">
      <g
         fill="#1f1d19"
         fill-opacity="1"
         id="g5"
         style="fill:#000000">
        <g
           transform="translate(1.862413,234.29539)"
           id="g4"
           style="fill:#000000">
          <g
             id="g3"
             style="fill:#000000">
            <path
               d="m 96.9375,-46.734375 h 4.70313 V 0 H 2.96875 v -46.734375 h 46.984375 v -5.9375 H 2.96875 v -46.5 H 96.9375 Z m 0,0"
               id="path3"
               style="fill:#000000" />
          </g>
        </g>
      </g>
      <g
         fill="#1f1d19"
         fill-opacity="1"
         id="g8"
         style="fill:#000000">
        <g
           transform="translate(100.52071,234.29539)"
           id="g7"
           style="fill:#000000">
          <g
             id="g6"
             style="fill:#000000">
            <path
               d="m 75.921875,-192.39062 23.984375,23.98437 -23.984375,24.23438 -24.234375,-24.23438 z m -25.21875,34.375 23.984375,23.98437 -23.984375,24.23437 -24.25,-24.23437 z m 50.437505,0 23.98437,23.98437 -23.98437,24.23437 -24.23438,-24.23437 z M -2.96875,0 v -46.734375 h 5.9375 v -52.4375 h 45.75 v 52.4375 h 5.9375 v -52.4375 h 45.75 v 52.4375 h 5.9375 v -52.4375 h 45.75 V 0 Z m 0,0"
               id="path5"
               style="fill:#000000" />
          </g>
        </g>
      </g>
      <g
         fill="#1f1d19"
         fill-opacity="1"
         id="g11"
         style="fill:#000000">
        <g
           transform="translate(255.55517,234.29539)"
           id="g10"
           style="fill:#000000">
          <g
             id="g9"
             style="fill:#000000">
            <path
               d="M 2.96875,-99.171875 H 49.953125 V 52.671875 H 2.96875 Z m 0,0"
               id="path8"
               style="fill:#000000" />
          </g>
        </g>
      </g>
    </g>
  </g>
</svg>
